G75*
%MOIN*%
%OFA0B0*%
%FSLAX24Y24*%
%IPPOS*%
%LPD*%
%AMOC8*
5,1,8,0,0,1.08239X$1,22.5*
%
%ADD10R,0.0280X0.0560*%
%ADD11R,0.0560X0.0280*%
%ADD12R,0.0760X0.1060*%
%ADD13C,0.3210*%
%ADD14R,0.0690X0.0611*%
%ADD15R,0.0454X0.0493*%
%ADD16R,0.0493X0.0454*%
%ADD17R,0.0660X0.0360*%
%ADD18C,0.0800*%
%ADD19R,0.2160X0.0820*%
%ADD20OC8,0.0800*%
%ADD21R,0.0800X0.0800*%
%ADD22R,0.0277X0.0532*%
%ADD23R,0.0375X0.0375*%
%ADD24R,0.0611X0.0198*%
%ADD25R,0.0808X0.0769*%
%ADD26R,0.0808X0.0808*%
%ADD27C,0.0630*%
%ADD28C,0.0397*%
%ADD29C,0.0476*%
D10*
X007498Y005710D03*
X007813Y005710D03*
X008128Y005710D03*
X008443Y005710D03*
X008757Y005710D03*
X009072Y005710D03*
X009387Y005710D03*
X009702Y005710D03*
X009702Y009090D03*
X009387Y009090D03*
X009072Y009090D03*
X008757Y009090D03*
X008443Y009090D03*
X008128Y009090D03*
X007813Y009090D03*
X007498Y009090D03*
D11*
X006910Y008502D03*
X006910Y008187D03*
X006910Y007872D03*
X006910Y007557D03*
X006910Y007243D03*
X006910Y006928D03*
X006910Y006613D03*
X006910Y006298D03*
X010290Y006298D03*
X010290Y006613D03*
X010290Y006928D03*
X010290Y007243D03*
X010290Y007557D03*
X010290Y007872D03*
X010290Y008187D03*
X010290Y008502D03*
D12*
X015669Y008590D03*
X015669Y009810D03*
X024331Y009810D03*
X024331Y008590D03*
D13*
X020984Y009200D02*
X019016Y009200D01*
D14*
X015100Y006451D03*
X015100Y005349D03*
D15*
X014100Y005565D03*
X013100Y005565D03*
X013100Y006235D03*
X014100Y006235D03*
X008600Y003935D03*
X008600Y003265D03*
X003020Y003245D03*
X003020Y003915D03*
X002260Y003925D03*
X002260Y004595D03*
X016100Y003235D03*
X017100Y003235D03*
X017100Y002565D03*
X016100Y002565D03*
D16*
X019265Y004200D03*
X019935Y004200D03*
X021165Y004200D03*
X021835Y004200D03*
X010435Y005000D03*
X009765Y005000D03*
X008935Y004900D03*
X008265Y004900D03*
D17*
X005100Y004650D03*
X003100Y004650D03*
X003100Y006150D03*
X005100Y006150D03*
D18*
X001600Y000900D03*
X002600Y000900D03*
X003600Y000900D03*
X004600Y000900D03*
X005600Y000900D03*
X006600Y000900D03*
X007600Y000900D03*
X008600Y000900D03*
X009600Y000900D03*
X010600Y000900D03*
X011600Y000900D03*
X012600Y000900D03*
X013600Y000900D03*
X014600Y000900D03*
X015600Y000900D03*
X016600Y000900D03*
X017600Y000900D03*
X018600Y000900D03*
X004100Y007400D03*
X003100Y007400D03*
X003100Y008400D03*
X004100Y008400D03*
X004100Y009400D03*
X003100Y009400D03*
X001100Y008900D03*
X001100Y009900D03*
X001100Y007900D03*
X001100Y006900D03*
X001100Y005900D03*
X001100Y004900D03*
X003600Y011900D03*
X004600Y011900D03*
X005600Y011900D03*
X006600Y011900D03*
X007600Y011900D03*
X008600Y011900D03*
X009600Y011900D03*
X010600Y011900D03*
X011600Y011900D03*
X012600Y011900D03*
X013600Y011900D03*
X014600Y011900D03*
D19*
X014000Y003400D03*
X010200Y003400D03*
D20*
X012600Y007900D03*
X013600Y007900D03*
X013600Y008900D03*
X012600Y008900D03*
X012600Y009900D03*
X013600Y009900D03*
D21*
X004100Y010400D03*
X003100Y010400D03*
D22*
X017926Y003412D03*
X018674Y003412D03*
X018674Y002388D03*
X018300Y002388D03*
X017926Y002388D03*
D23*
X018105Y004200D03*
X018695Y004200D03*
D24*
X022857Y003912D03*
X022857Y003656D03*
X022857Y003400D03*
X022857Y003144D03*
X022857Y002888D03*
D25*
X023900Y001825D03*
X023900Y004975D03*
D26*
X023900Y003900D03*
X023900Y002900D03*
D27*
X021094Y002700D03*
X020306Y002700D03*
D28*
X018300Y001800D03*
X017100Y002000D03*
X016100Y002000D03*
X015100Y004700D03*
X014100Y005100D03*
X013100Y005100D03*
X010800Y006200D03*
X011000Y006800D03*
X010900Y007300D03*
X011200Y007900D03*
X011300Y008400D03*
X010900Y008600D03*
X010100Y008900D03*
X009000Y008500D03*
X007500Y008500D03*
X009700Y007550D03*
X009700Y006900D03*
X009100Y006300D03*
X008100Y006600D03*
X006300Y006900D03*
X005950Y006600D03*
X005200Y006900D03*
X004800Y006600D03*
X002500Y006150D03*
X005000Y008500D03*
X008500Y010300D03*
X009400Y011100D03*
X014600Y010400D03*
X010400Y005500D03*
X009000Y004400D03*
X008200Y004400D03*
X007600Y004400D03*
X022500Y004200D03*
X023900Y003900D03*
X023900Y002900D03*
X023900Y001800D03*
X023900Y005000D03*
D29*
X021100Y007900D03*
X020600Y008400D03*
X020100Y007900D03*
X019600Y008400D03*
X019100Y007900D03*
X018600Y008400D03*
X018100Y008900D03*
X018600Y009400D03*
X019100Y008900D03*
X019600Y009400D03*
X020100Y008900D03*
X020600Y009400D03*
X021100Y008900D03*
X021600Y009400D03*
X022100Y008900D03*
X021600Y008400D03*
X021100Y009900D03*
X020600Y010400D03*
X020100Y009900D03*
X019600Y010400D03*
X019100Y009900D03*
X018600Y010400D03*
X018100Y009900D03*
X021600Y010400D03*
X022100Y009900D03*
X007100Y002900D03*
X005100Y002900D03*
M02*
