%
M48
M72
T01C0.0197
T02C0.0276
T03C0.0400
%
T01
X7600Y4400
X8200Y4400
X9000Y4400
X10400Y5500
X10800Y6200
X11000Y6800
X10900Y7300
X11200Y7900
X11300Y8400
X10900Y8600
X10100Y8900
X9000Y8500
X7500Y8500
X9700Y7550
X9700Y6900
X9100Y6300
X8100Y6600
X6300Y6900
X5950Y6600
X5200Y6900
X4800Y6600
X2500Y6150
X5000Y8500
X8500Y10300
X9400Y11100
X14600Y10400
X14100Y5100
X13100Y5100
X15100Y4700
X16100Y2000
X17100Y2000
X18300Y1800
X22500Y4200
X23900Y3900
X23900Y2900
X23900Y1800
X23900Y5000
T02
X21094Y2700
X20306Y2700
X20100Y7900
X19600Y8400
X19100Y7900
X18600Y8400
X18100Y8900
X18600Y9400
X19100Y8900
X19600Y9400
X20100Y8900
X20600Y9400
X21100Y8900
X21600Y9400
X22100Y8900
X21600Y8400
X21100Y7900
X20600Y8400
X20100Y9900
X19600Y10400
X19100Y9900
X18600Y10400
X18100Y9900
X20600Y10400
X21100Y9900
X21600Y10400
X22100Y9900
X7100Y2900
X5100Y2900
T03
X1600Y900
X2600Y900
X3600Y900
X4600Y900
X5600Y900
X6600Y900
X7600Y900
X8600Y900
X9600Y900
X10600Y900
X11600Y900
X12600Y900
X13600Y900
X14600Y900
X15600Y900
X16600Y900
X17600Y900
X18600Y900
X13600Y7900
X12600Y7900
X12600Y8900
X13600Y8900
X13600Y9900
X12600Y9900
X12600Y11900
X13600Y11900
X14600Y11900
X11600Y11900
X10600Y11900
X9600Y11900
X8600Y11900
X7600Y11900
X6600Y11900
X5600Y11900
X4600Y11900
X3600Y11900
X3100Y10400
X4100Y10400
X4100Y9400
X3100Y9400
X3100Y8400
X4100Y8400
X4100Y7400
X3100Y7400
X1100Y6900
X1100Y5900
X1100Y4900
X1100Y7900
X1100Y8900
X1100Y9900
M30
