G75*
%MOIN*%
%OFA0B0*%
%FSLAX24Y24*%
%IPPOS*%
%LPD*%
%AMOC8*
5,1,8,0,0,1.08239X$1,22.5*
%
%ADD10C,0.0000*%
%ADD11C,0.0040*%
%ADD12R,0.0020X0.0020*%
%ADD13R,0.0540X0.0020*%
%ADD14R,0.0660X0.0020*%
%ADD15R,0.0820X0.0020*%
%ADD16R,0.0940X0.0020*%
%ADD17R,0.1100X0.0020*%
%ADD18R,0.1180X0.0020*%
%ADD19R,0.1260X0.0020*%
%ADD20R,0.1300X0.0020*%
%ADD21R,0.1420X0.0020*%
%ADD22R,0.1460X0.0020*%
%ADD23R,0.1540X0.0020*%
%ADD24R,0.1600X0.0020*%
%ADD25R,0.1700X0.0020*%
%ADD26R,0.1780X0.0020*%
%ADD27R,0.1820X0.0020*%
%ADD28R,0.1860X0.0020*%
%ADD29R,0.0380X0.0020*%
%ADD30R,0.1900X0.0020*%
%ADD31R,0.0500X0.0020*%
%ADD32R,0.1960X0.0020*%
%ADD33R,0.0620X0.0020*%
%ADD34R,0.1980X0.0020*%
%ADD35R,0.0040X0.0020*%
%ADD36R,0.0700X0.0020*%
%ADD37R,0.0720X0.0020*%
%ADD38R,0.0640X0.0020*%
%ADD39R,0.0760X0.0020*%
%ADD40R,0.0100X0.0020*%
%ADD41R,0.0320X0.0020*%
%ADD42R,0.0260X0.0020*%
%ADD43R,0.0740X0.0020*%
%ADD44R,0.0220X0.0020*%
%ADD45R,0.0120X0.0020*%
%ADD46R,0.0780X0.0020*%
%ADD47R,0.0240X0.0020*%
%ADD48R,0.0200X0.0020*%
%ADD49R,0.0800X0.0020*%
%ADD50R,0.0180X0.0020*%
%ADD51R,0.0840X0.0020*%
%ADD52R,0.0860X0.0020*%
%ADD53R,0.0340X0.0020*%
%ADD54R,0.0880X0.0020*%
%ADD55R,0.0300X0.0020*%
%ADD56R,0.0600X0.0020*%
%ADD57R,0.0280X0.0020*%
%ADD58R,0.0900X0.0020*%
%ADD59R,0.0460X0.0020*%
%ADD60R,0.0420X0.0020*%
%ADD61R,0.0480X0.0020*%
%ADD62R,0.0140X0.0020*%
%ADD63R,0.0060X0.0020*%
%ADD64R,0.0680X0.0020*%
%ADD65R,0.0520X0.0020*%
%ADD66R,0.0360X0.0020*%
%ADD67R,0.0080X0.0020*%
%ADD68R,0.0560X0.0020*%
%ADD69R,0.0580X0.0020*%
%ADD70R,0.2840X0.0020*%
%ADD71R,0.1120X0.0020*%
%ADD72R,0.1080X0.0020*%
%ADD73R,0.1060X0.0020*%
%ADD74R,0.1040X0.0020*%
%ADD75R,0.1020X0.0020*%
%ADD76R,0.0440X0.0020*%
%ADD77R,0.0980X0.0020*%
%ADD78R,0.1000X0.0020*%
%ADD79R,0.0960X0.0020*%
%ADD80R,0.0920X0.0020*%
%ADD81R,0.2500X0.0020*%
%ADD82R,0.2460X0.0020*%
%ADD83R,0.2420X0.0020*%
%ADD84R,0.1580X0.0020*%
%ADD85R,0.1140X0.0020*%
D10*
X000100Y000100D02*
X025100Y000100D01*
X025100Y012600D01*
X000100Y012600D01*
X000100Y000100D01*
D11*
X013132Y003360D02*
X013438Y003360D01*
X013285Y003360D02*
X013285Y003820D01*
X013438Y003667D01*
X014052Y003437D02*
X014052Y003360D01*
X014129Y003360D01*
X014129Y003437D01*
X014052Y003437D01*
X014283Y003667D02*
X014436Y003360D01*
X014589Y003667D01*
X014743Y003590D02*
X014743Y003513D01*
X015050Y003513D01*
X015050Y003437D02*
X015050Y003590D01*
X014973Y003667D01*
X014820Y003667D01*
X014743Y003590D01*
X014820Y003360D02*
X014973Y003360D01*
X015050Y003437D01*
X015203Y003667D02*
X015280Y003667D01*
X015434Y003513D01*
X015434Y003360D02*
X015434Y003667D01*
X016047Y003360D02*
X016354Y003360D01*
X016201Y003360D02*
X016201Y003820D01*
X016354Y003667D01*
X016508Y003667D02*
X016661Y003360D01*
X016815Y003667D01*
X017429Y003590D02*
X017429Y003513D01*
X017735Y003513D01*
X017735Y003437D02*
X017735Y003590D01*
X017659Y003667D01*
X017505Y003667D01*
X017429Y003590D01*
X017505Y003360D02*
X017659Y003360D01*
X017735Y003437D01*
X017889Y003360D02*
X018042Y003360D01*
X017966Y003360D02*
X017966Y003820D01*
X018042Y003820D01*
X018196Y003667D02*
X018196Y003360D01*
X018426Y003360D01*
X018503Y003437D01*
X018503Y003667D01*
X018656Y003667D02*
X018886Y003667D01*
X018963Y003590D01*
X018963Y003437D01*
X018886Y003360D01*
X018656Y003360D01*
X018656Y003820D01*
X019117Y003590D02*
X019193Y003667D01*
X019347Y003667D01*
X019424Y003590D01*
X019424Y003437D01*
X019347Y003360D01*
X019193Y003360D01*
X019117Y003437D01*
X019117Y003590D01*
X019577Y003820D02*
X019577Y003360D01*
X019884Y003360D02*
X019884Y003820D01*
X019731Y003667D01*
X019577Y003820D01*
X020498Y003667D02*
X020575Y003667D01*
X020728Y003513D01*
X020728Y003360D02*
X020728Y003667D01*
X020882Y003590D02*
X020958Y003667D01*
X021112Y003667D01*
X021188Y003590D01*
X021188Y003437D01*
X021112Y003360D01*
X020958Y003360D01*
X020882Y003437D01*
X020882Y003590D01*
X021342Y003667D02*
X021572Y003667D01*
X021649Y003590D01*
X021572Y003513D01*
X021419Y003513D01*
X021342Y003437D01*
X021419Y003360D01*
X021649Y003360D01*
X021802Y003360D02*
X021802Y003590D01*
X021879Y003667D01*
X022109Y003667D01*
X022109Y003360D01*
X022263Y003513D02*
X022570Y003513D01*
X022570Y003437D02*
X022570Y003590D01*
X022493Y003667D01*
X022339Y003667D01*
X022263Y003590D01*
X022263Y003513D01*
X022339Y003360D02*
X022493Y003360D01*
X022570Y003437D01*
X022723Y003437D02*
X022723Y003513D01*
X022800Y003590D01*
X022953Y003590D01*
X023030Y003667D01*
X023030Y003744D01*
X022953Y003820D01*
X022800Y003820D01*
X022723Y003744D01*
X022723Y003437D02*
X022800Y003360D01*
X022953Y003360D01*
X023030Y003437D01*
D12*
X022680Y004840D03*
X022340Y004780D03*
X022300Y004780D03*
X022260Y004780D03*
X022220Y004780D03*
X022180Y004780D03*
X022140Y004780D03*
X021960Y004800D03*
X021900Y004820D03*
X021800Y004840D03*
X021580Y004940D03*
X022260Y005220D03*
X022260Y005260D03*
X022260Y005540D03*
X022220Y005540D03*
X022300Y005540D03*
X022640Y005600D03*
X022640Y005620D03*
X022640Y005640D03*
X022640Y005680D03*
X022640Y005700D03*
X021860Y005700D03*
X021860Y005660D03*
X021860Y005620D03*
X021860Y005580D03*
X021860Y006140D03*
X021860Y006420D03*
X021820Y006420D03*
X021780Y006420D03*
X021740Y006420D03*
X021700Y006420D03*
X021900Y006420D03*
X021940Y006420D03*
X021980Y006420D03*
X021980Y006460D03*
X022020Y006460D03*
X022060Y006460D03*
X022100Y006460D03*
X022140Y006460D03*
X022140Y006420D03*
X022100Y006420D03*
X022060Y006420D03*
X022020Y006420D03*
X022180Y006420D03*
X022180Y006460D03*
X022220Y006460D03*
X022260Y006460D03*
X022300Y006460D03*
X022340Y006460D03*
X022380Y006460D03*
X022420Y006460D03*
X022420Y006420D03*
X022380Y006420D03*
X022340Y006420D03*
X022300Y006420D03*
X022260Y006420D03*
X022220Y006420D03*
X022460Y006420D03*
X022460Y006460D03*
X022500Y006460D03*
X022540Y006460D03*
X022540Y006420D03*
X022500Y006420D03*
X022580Y006420D03*
X022620Y006420D03*
X022660Y006420D03*
X022700Y006420D03*
X022740Y006420D03*
X022780Y006420D03*
X022820Y006420D03*
X022660Y006140D03*
X022420Y006660D03*
X022460Y006700D03*
X022460Y006740D03*
X022380Y006780D03*
X022360Y006800D03*
X022360Y006760D03*
X022160Y006720D03*
X022140Y006700D03*
X022100Y006660D03*
X022060Y006700D03*
X022140Y006780D03*
X022200Y007080D03*
X022240Y007080D03*
X022280Y007080D03*
X022300Y007140D03*
X022180Y007140D03*
X022120Y007320D03*
X022100Y007380D03*
X022240Y007400D03*
X022280Y007400D03*
X022400Y007320D03*
X022520Y007640D03*
X022680Y007600D03*
X022300Y007660D03*
X022260Y007660D03*
X022220Y007660D03*
X022180Y007660D03*
X022000Y007640D03*
X021900Y007620D03*
X021780Y007580D03*
X019840Y006640D03*
X019800Y006640D03*
X019760Y006640D03*
X019720Y006640D03*
X019740Y006460D03*
X019780Y006460D03*
X019820Y006460D03*
X019860Y006460D03*
X020140Y006460D03*
X020180Y006460D03*
X020220Y006460D03*
X019100Y006660D03*
X018540Y006660D03*
X017960Y006640D03*
X017920Y006640D03*
X017880Y006640D03*
X017840Y006640D03*
X017800Y006640D03*
X017760Y006640D03*
X017560Y006640D03*
X017520Y006640D03*
X017480Y006640D03*
X017440Y006640D03*
X017400Y006640D03*
X017360Y006640D03*
X016780Y006660D03*
X015900Y006660D03*
X015580Y006460D03*
X015540Y006460D03*
X015500Y006460D03*
X015220Y006460D03*
X015180Y006460D03*
X015140Y006460D03*
X015100Y006460D03*
X015120Y006640D03*
X015160Y006640D03*
X015200Y006640D03*
X014540Y006660D03*
X013940Y006660D03*
X013740Y006660D03*
X013380Y006460D03*
X013340Y006460D03*
X013020Y006460D03*
X012980Y006460D03*
X012940Y006460D03*
X012920Y006640D03*
X012960Y006640D03*
X013000Y006640D03*
X013140Y005460D03*
X013080Y005440D03*
X013040Y005440D03*
X013000Y005440D03*
X012960Y005440D03*
X013800Y005440D03*
X013840Y005440D03*
X013880Y005440D03*
X014500Y005460D03*
X014540Y005460D03*
X015100Y005460D03*
X015160Y005440D03*
X015200Y005440D03*
X015240Y005440D03*
X015280Y005440D03*
X015340Y005460D03*
X016620Y005620D03*
X016680Y005640D03*
X016780Y005780D03*
X016820Y005780D03*
X016860Y005780D03*
X016900Y005780D03*
X016900Y005660D03*
X017100Y005500D03*
X016880Y005440D03*
X016840Y005440D03*
X016800Y005440D03*
X016760Y005280D03*
X016880Y005280D03*
X016860Y005100D03*
X016820Y005100D03*
X016900Y005100D03*
X017080Y005120D03*
X016640Y005120D03*
X017780Y005460D03*
X017820Y005460D03*
X017860Y005460D03*
X018340Y005460D03*
X018400Y005440D03*
X018440Y005440D03*
X018480Y005440D03*
X018580Y005460D03*
X019800Y005440D03*
X019840Y005440D03*
X019880Y005440D03*
X019920Y005440D03*
X023200Y005120D03*
D13*
X022260Y004800D03*
X019980Y006480D03*
X018460Y006560D03*
X018440Y005580D03*
X016880Y005940D03*
X016860Y005920D03*
X016880Y006500D03*
X016860Y006520D03*
X013840Y006540D03*
X013840Y005580D03*
D14*
X016800Y005520D03*
X016820Y005540D03*
X016840Y005560D03*
X016860Y005180D03*
X021260Y005620D03*
X021280Y005600D03*
X021260Y005660D03*
X021500Y005260D03*
X021520Y005240D03*
X022260Y004820D03*
X022980Y005260D03*
X023200Y005560D03*
X023220Y005580D03*
X023240Y005640D03*
X023260Y005660D03*
X022940Y007220D03*
X022920Y007280D03*
X022800Y007360D03*
X022260Y007620D03*
X021740Y007380D03*
X021640Y007320D03*
X021560Y007240D03*
D15*
X021600Y007200D03*
X021540Y007140D03*
X022240Y007600D03*
X023260Y006420D03*
X023280Y006400D03*
X023280Y006360D03*
X023280Y006320D03*
X023280Y006280D03*
X023280Y006240D03*
X023280Y006200D03*
X023280Y006160D03*
X023280Y006120D03*
X023280Y006080D03*
X023280Y006040D03*
X023280Y006000D03*
X023040Y005400D03*
X022240Y004840D03*
X021480Y005360D03*
X021480Y005400D03*
X021460Y005420D03*
X021220Y006020D03*
X021220Y006060D03*
X021220Y006100D03*
X021220Y006140D03*
X021220Y006180D03*
X021200Y006200D03*
X021220Y006220D03*
X021200Y006240D03*
X021220Y006260D03*
X021220Y006300D03*
X021220Y006340D03*
X021220Y006380D03*
X021220Y006400D03*
D16*
X021440Y006860D03*
X021440Y006900D03*
X021460Y006920D03*
X021480Y006940D03*
X021560Y007060D03*
X022940Y007080D03*
X022960Y007060D03*
X023040Y006940D03*
X023060Y006880D03*
X023080Y006860D03*
X023080Y006820D03*
X022240Y004860D03*
D17*
X022260Y004880D03*
X023120Y006460D03*
X021380Y006480D03*
X021380Y006520D03*
D18*
X022240Y004900D03*
D19*
X022260Y004920D03*
X022260Y007520D03*
D20*
X022260Y007500D03*
X022260Y004940D03*
D21*
X022260Y004960D03*
X022260Y007480D03*
D22*
X022260Y007460D03*
X022260Y004980D03*
D23*
X022240Y005000D03*
X022240Y007440D03*
D24*
X022250Y005020D03*
D25*
X022240Y005040D03*
X022260Y005060D03*
D26*
X022240Y005080D03*
D27*
X022240Y005100D03*
D28*
X022240Y005120D03*
D29*
X019900Y005560D03*
X019900Y005600D03*
X019900Y005640D03*
X018440Y005500D03*
X017760Y005580D03*
X016860Y005840D03*
X016860Y005120D03*
X015280Y005600D03*
X015280Y005620D03*
X015280Y005640D03*
X013840Y005500D03*
X013100Y005640D03*
X013080Y005620D03*
X013080Y005580D03*
X013840Y006620D03*
X019140Y006560D03*
X022260Y007160D03*
X022240Y007300D03*
D30*
X022240Y005140D03*
D31*
X019980Y006500D03*
X019980Y006540D03*
X019980Y006580D03*
X019960Y006600D03*
X016880Y006560D03*
X016860Y006540D03*
X016860Y005900D03*
X016860Y005140D03*
X015340Y006500D03*
X015340Y006540D03*
X015340Y006580D03*
X015340Y006600D03*
X015340Y006620D03*
X013840Y006560D03*
X013160Y006560D03*
X013140Y006580D03*
X013160Y006600D03*
X013140Y006620D03*
X013140Y006540D03*
X013160Y006520D03*
X013160Y006480D03*
X013840Y005560D03*
D32*
X022250Y005160D03*
D33*
X021540Y005200D03*
X021520Y005220D03*
X021280Y005580D03*
X022980Y005220D03*
X022980Y005200D03*
X022880Y007300D03*
X022860Y007320D03*
X022840Y007340D03*
X021600Y007300D03*
X021580Y007280D03*
X021560Y007260D03*
X019260Y006520D03*
X019260Y006500D03*
X019260Y006480D03*
X019260Y006460D03*
X018460Y006480D03*
X017640Y005660D03*
X017660Y005640D03*
X017640Y005620D03*
X017660Y005600D03*
X016860Y005600D03*
X016840Y005580D03*
X016760Y005460D03*
X016860Y005160D03*
X014640Y005580D03*
X014640Y005600D03*
X014640Y005620D03*
X014640Y006500D03*
X014640Y006520D03*
X016040Y006500D03*
X016060Y006520D03*
X016040Y006460D03*
D34*
X022240Y005180D03*
D35*
X022250Y005200D03*
X022250Y005240D03*
X022650Y005580D03*
X022650Y005720D03*
X022650Y005740D03*
X022650Y005780D03*
X022650Y005820D03*
X022650Y005860D03*
X022650Y005900D03*
X022650Y005940D03*
X022650Y005980D03*
X022650Y006020D03*
X022650Y006060D03*
X022650Y006100D03*
X021850Y006100D03*
X021850Y006060D03*
X021850Y006020D03*
X021850Y005980D03*
X021850Y005940D03*
X021850Y005900D03*
X021850Y005860D03*
X021850Y005820D03*
X021850Y005780D03*
X021850Y005740D03*
X021870Y005680D03*
X021870Y005640D03*
X022050Y006720D03*
X022050Y006740D03*
X022050Y006760D03*
X022150Y006760D03*
X022170Y006740D03*
X022350Y006740D03*
X022350Y006720D03*
X022370Y006700D03*
X022470Y006720D03*
D36*
X021560Y007220D03*
X021700Y007360D03*
X022760Y007380D03*
X023240Y005740D03*
X016860Y005200D03*
D37*
X016850Y005220D03*
X021250Y005720D03*
X021510Y005280D03*
X022990Y005280D03*
X022990Y005300D03*
X023250Y005720D03*
D38*
X023230Y005620D03*
X023230Y005600D03*
X022990Y005240D03*
X022950Y007240D03*
X021670Y007340D03*
X016050Y006480D03*
X014630Y006480D03*
X014630Y005640D03*
D39*
X016850Y005260D03*
X016850Y005240D03*
X021230Y005840D03*
X021230Y005880D03*
X021490Y005340D03*
X023010Y005340D03*
X023250Y005800D03*
X023270Y005900D03*
D40*
X022780Y005700D03*
X022780Y005580D03*
X022260Y005500D03*
X022260Y005460D03*
X022260Y005420D03*
X022260Y005380D03*
X022260Y005340D03*
X022260Y005300D03*
X022240Y005280D03*
X021720Y005600D03*
X021720Y005720D03*
X022120Y006680D03*
X022400Y006680D03*
X022440Y007120D03*
X021980Y007220D03*
D41*
X017070Y005280D03*
X014530Y006580D03*
D42*
X014460Y006460D03*
X014440Y006440D03*
X014440Y006400D03*
X014820Y006440D03*
X014820Y006460D03*
X014040Y006400D03*
X014020Y006460D03*
X013660Y006460D03*
X013640Y006400D03*
X013180Y006460D03*
X013640Y005720D03*
X013660Y005660D03*
X014020Y005660D03*
X014040Y005720D03*
X014440Y005680D03*
X014520Y005500D03*
X014820Y005660D03*
X014820Y005680D03*
X015340Y005660D03*
X015360Y005680D03*
X016600Y005280D03*
X017100Y005300D03*
X017100Y005320D03*
X017480Y005720D03*
X017840Y005680D03*
X018620Y005660D03*
X018640Y005680D03*
X018640Y006440D03*
X018620Y006460D03*
X019080Y006440D03*
X019440Y006400D03*
X019980Y005660D03*
X016880Y006640D03*
X016700Y006460D03*
X016220Y006420D03*
X013160Y005680D03*
X013040Y005480D03*
D43*
X021240Y005760D03*
X021260Y005780D03*
X021240Y005800D03*
X021260Y005740D03*
X021500Y005300D03*
X023000Y005320D03*
X023240Y005760D03*
X023260Y005780D03*
X023260Y005820D03*
X023260Y005860D03*
D44*
X022260Y007320D03*
X020000Y006940D03*
X020000Y006900D03*
X020000Y006860D03*
X020000Y006820D03*
X020000Y006780D03*
X020000Y006740D03*
X020000Y006700D03*
X020000Y006660D03*
X020000Y006460D03*
X020000Y006420D03*
X020000Y006380D03*
X020000Y006340D03*
X020000Y006300D03*
X020000Y006260D03*
X020000Y006220D03*
X020000Y006180D03*
X020000Y006140D03*
X020000Y006100D03*
X020000Y006060D03*
X020000Y006020D03*
X020000Y005980D03*
X020000Y005940D03*
X020000Y005900D03*
X020000Y005860D03*
X020000Y005820D03*
X020000Y005780D03*
X020000Y005740D03*
X020000Y005700D03*
X019840Y005460D03*
X019460Y005480D03*
X019460Y005500D03*
X019460Y005520D03*
X019460Y005540D03*
X019460Y005560D03*
X019460Y005580D03*
X019460Y005600D03*
X019460Y005620D03*
X019460Y005640D03*
X019460Y005660D03*
X019460Y005680D03*
X019460Y005700D03*
X019460Y005720D03*
X019460Y005740D03*
X019460Y005760D03*
X019460Y005780D03*
X019460Y005800D03*
X019460Y005820D03*
X019460Y005840D03*
X019460Y005860D03*
X019460Y005880D03*
X019460Y005900D03*
X019460Y005920D03*
X019460Y005940D03*
X019460Y005960D03*
X019460Y005980D03*
X019460Y006000D03*
X019460Y006020D03*
X019460Y006040D03*
X019460Y006060D03*
X019460Y006080D03*
X019460Y006100D03*
X019460Y006120D03*
X019460Y006140D03*
X019460Y006160D03*
X019460Y006180D03*
X019460Y006200D03*
X019460Y006220D03*
X019460Y006240D03*
X019460Y006260D03*
X019460Y006280D03*
X019460Y006300D03*
X019460Y006320D03*
X019460Y006340D03*
X019460Y006360D03*
X019460Y006540D03*
X019460Y006560D03*
X019460Y006580D03*
X019460Y006600D03*
X019460Y006620D03*
X019460Y006640D03*
X019460Y006660D03*
X019460Y006680D03*
X019460Y006700D03*
X019460Y006720D03*
X019460Y006740D03*
X019460Y006760D03*
X019460Y006780D03*
X019460Y006800D03*
X019460Y006820D03*
X019460Y006840D03*
X019460Y006860D03*
X019460Y006880D03*
X019460Y006900D03*
X019460Y006920D03*
X019460Y006940D03*
X019460Y006960D03*
X019460Y006980D03*
X019460Y007000D03*
X019460Y007020D03*
X019460Y007040D03*
X019120Y006620D03*
X019060Y006400D03*
X019060Y006380D03*
X019060Y006360D03*
X019060Y006340D03*
X019060Y006320D03*
X019060Y006300D03*
X019060Y006280D03*
X019060Y006260D03*
X019060Y006240D03*
X019060Y006220D03*
X019060Y006200D03*
X019060Y006180D03*
X019060Y006160D03*
X019060Y006140D03*
X019060Y006120D03*
X019060Y006100D03*
X019060Y006080D03*
X019060Y006060D03*
X019060Y006040D03*
X019060Y006020D03*
X019060Y006000D03*
X019060Y005980D03*
X019060Y005960D03*
X019060Y005940D03*
X019060Y005920D03*
X019060Y005900D03*
X019060Y005880D03*
X019060Y005860D03*
X019060Y005840D03*
X019060Y005820D03*
X019060Y005800D03*
X019060Y005780D03*
X019060Y005760D03*
X019060Y005740D03*
X019060Y005720D03*
X019060Y005700D03*
X019060Y005680D03*
X019060Y005660D03*
X019060Y005640D03*
X019060Y005620D03*
X019060Y005600D03*
X019060Y005580D03*
X019060Y005560D03*
X019060Y005540D03*
X019060Y005520D03*
X019060Y005500D03*
X019060Y005480D03*
X018660Y005720D03*
X018640Y005700D03*
X018660Y005760D03*
X018660Y005800D03*
X018660Y005840D03*
X018660Y005880D03*
X018660Y005920D03*
X018660Y005960D03*
X018660Y006000D03*
X018660Y006040D03*
X018660Y006080D03*
X018660Y006120D03*
X018660Y006160D03*
X018660Y006200D03*
X018660Y006240D03*
X018660Y006280D03*
X018660Y006320D03*
X018660Y006360D03*
X018660Y006400D03*
X018260Y006400D03*
X018240Y006380D03*
X018260Y006360D03*
X018240Y006340D03*
X018260Y006320D03*
X018240Y006300D03*
X018260Y006280D03*
X018240Y006260D03*
X018260Y006240D03*
X018240Y006220D03*
X018260Y006200D03*
X018240Y006180D03*
X018260Y006160D03*
X018240Y006140D03*
X018260Y006120D03*
X018240Y006100D03*
X018260Y006080D03*
X018240Y006060D03*
X018260Y006040D03*
X018240Y006020D03*
X018260Y006000D03*
X018240Y005980D03*
X018260Y005960D03*
X018240Y005940D03*
X018260Y005920D03*
X018240Y005900D03*
X018260Y005880D03*
X018240Y005860D03*
X018260Y005840D03*
X018240Y005820D03*
X018260Y005800D03*
X018240Y005780D03*
X018260Y005760D03*
X018240Y005740D03*
X018260Y005720D03*
X017860Y005720D03*
X017840Y005740D03*
X017860Y005760D03*
X017840Y005780D03*
X017860Y005800D03*
X017840Y005820D03*
X017860Y005840D03*
X017840Y005860D03*
X017860Y005880D03*
X017840Y005900D03*
X017860Y005920D03*
X017840Y005940D03*
X017860Y005960D03*
X017840Y005980D03*
X017860Y006000D03*
X017840Y006020D03*
X017860Y006040D03*
X017840Y006060D03*
X017860Y006080D03*
X017840Y006100D03*
X017860Y006120D03*
X017840Y006140D03*
X017860Y006160D03*
X017840Y006180D03*
X017860Y006200D03*
X017840Y006220D03*
X017860Y006240D03*
X017840Y006260D03*
X017860Y006280D03*
X017840Y006300D03*
X017860Y006320D03*
X017840Y006340D03*
X017860Y006360D03*
X017840Y006380D03*
X017860Y006400D03*
X017840Y006420D03*
X017860Y006440D03*
X017840Y006460D03*
X017860Y006480D03*
X017840Y006500D03*
X017860Y006520D03*
X017840Y006540D03*
X017860Y006560D03*
X017840Y006580D03*
X017860Y006600D03*
X017840Y006620D03*
X017460Y006600D03*
X017440Y006620D03*
X017440Y006580D03*
X017460Y006560D03*
X017440Y006540D03*
X017460Y006520D03*
X017440Y006500D03*
X017460Y006480D03*
X017440Y006460D03*
X017460Y006440D03*
X017440Y006420D03*
X017460Y006400D03*
X017440Y006380D03*
X017460Y006360D03*
X017440Y006340D03*
X017460Y006320D03*
X017440Y006300D03*
X017460Y006280D03*
X017440Y006260D03*
X017460Y006240D03*
X017440Y006220D03*
X017460Y006200D03*
X017440Y006180D03*
X017460Y006160D03*
X017440Y006140D03*
X017460Y006120D03*
X017440Y006100D03*
X017460Y006080D03*
X017440Y006060D03*
X017460Y006040D03*
X017440Y006020D03*
X017460Y006000D03*
X017440Y005980D03*
X017460Y005960D03*
X017440Y005940D03*
X017460Y005920D03*
X017440Y005900D03*
X017460Y005880D03*
X017440Y005860D03*
X017460Y005840D03*
X017440Y005820D03*
X017460Y005800D03*
X017440Y005780D03*
X017460Y005760D03*
X017440Y005580D03*
X017460Y005560D03*
X017440Y005540D03*
X017460Y005520D03*
X017440Y005500D03*
X017460Y005480D03*
X017840Y005700D03*
X017060Y005680D03*
X017040Y005660D03*
X017020Y005440D03*
X017060Y005400D03*
X017080Y005380D03*
X017100Y005360D03*
X016560Y005300D03*
X016540Y005320D03*
X016540Y005360D03*
X016260Y005480D03*
X016240Y005500D03*
X016240Y005540D03*
X016240Y005580D03*
X016240Y005620D03*
X016240Y005660D03*
X016240Y005700D03*
X016240Y005740D03*
X016240Y005780D03*
X016240Y005820D03*
X016240Y005860D03*
X016240Y005900D03*
X016240Y005940D03*
X016240Y005980D03*
X016240Y006020D03*
X016240Y006060D03*
X016240Y006100D03*
X016240Y006140D03*
X016240Y006180D03*
X016240Y006220D03*
X016240Y006260D03*
X016240Y006300D03*
X016240Y006340D03*
X016240Y006380D03*
X016240Y006540D03*
X016240Y006580D03*
X016240Y006620D03*
X016240Y006660D03*
X016240Y006700D03*
X016240Y006740D03*
X016240Y006780D03*
X016240Y006820D03*
X016240Y006860D03*
X016240Y006900D03*
X016240Y006940D03*
X016240Y006980D03*
X016240Y007020D03*
X015920Y006620D03*
X015840Y006380D03*
X015840Y006340D03*
X015840Y006300D03*
X015840Y006260D03*
X015840Y006220D03*
X015840Y006180D03*
X015840Y006140D03*
X015840Y006100D03*
X015840Y006060D03*
X015840Y006020D03*
X015840Y005980D03*
X015840Y005940D03*
X015840Y005900D03*
X015840Y005860D03*
X015840Y005820D03*
X015840Y005780D03*
X015840Y005740D03*
X015840Y005700D03*
X015840Y005660D03*
X015840Y005620D03*
X015840Y005580D03*
X015840Y005540D03*
X015840Y005500D03*
X015860Y005480D03*
X015360Y005700D03*
X015360Y005740D03*
X015360Y005780D03*
X015360Y005820D03*
X015360Y005860D03*
X015360Y005900D03*
X015360Y005940D03*
X015360Y005980D03*
X015360Y006020D03*
X015360Y006060D03*
X015360Y006100D03*
X015360Y006140D03*
X015360Y006180D03*
X015360Y006220D03*
X015360Y006260D03*
X015360Y006300D03*
X015360Y006340D03*
X015360Y006380D03*
X015360Y006420D03*
X015360Y006460D03*
X015360Y006660D03*
X015360Y006700D03*
X015360Y006740D03*
X015360Y006780D03*
X015360Y006820D03*
X015360Y006860D03*
X015360Y006900D03*
X015360Y006940D03*
X014840Y006940D03*
X014840Y006980D03*
X014840Y007020D03*
X014840Y006900D03*
X014840Y006860D03*
X014840Y006820D03*
X014840Y006780D03*
X014840Y006740D03*
X014840Y006700D03*
X014840Y006660D03*
X014840Y006620D03*
X014840Y006580D03*
X014840Y006420D03*
X014840Y006380D03*
X014840Y006340D03*
X014840Y006300D03*
X014840Y006260D03*
X014840Y006220D03*
X014840Y006180D03*
X014840Y006140D03*
X014840Y006100D03*
X014840Y006060D03*
X014840Y006020D03*
X014840Y005980D03*
X014840Y005940D03*
X014840Y005900D03*
X014840Y005860D03*
X014840Y005820D03*
X014840Y005780D03*
X014840Y005740D03*
X014840Y005700D03*
X014840Y005540D03*
X014840Y005500D03*
X014820Y005480D03*
X014440Y005700D03*
X014440Y005740D03*
X014440Y005780D03*
X014440Y005820D03*
X014440Y005860D03*
X014440Y005900D03*
X014440Y005940D03*
X014440Y005980D03*
X014440Y006020D03*
X014440Y006060D03*
X014440Y006100D03*
X014440Y006140D03*
X014440Y006180D03*
X014440Y006220D03*
X014440Y006260D03*
X014440Y006300D03*
X014440Y006340D03*
X014440Y006380D03*
X014440Y006420D03*
X014520Y006620D03*
X014040Y006420D03*
X014040Y006380D03*
X014040Y006340D03*
X014040Y006300D03*
X014040Y006260D03*
X014040Y006220D03*
X014040Y006180D03*
X014040Y006140D03*
X014040Y006100D03*
X014040Y006060D03*
X014040Y006020D03*
X014040Y005980D03*
X014040Y005940D03*
X014040Y005900D03*
X014040Y005860D03*
X014040Y005820D03*
X014040Y005780D03*
X014040Y005740D03*
X014040Y005700D03*
X013840Y005460D03*
X013640Y005700D03*
X013640Y005740D03*
X013640Y005780D03*
X013640Y005820D03*
X013640Y005860D03*
X013640Y005900D03*
X013640Y005940D03*
X013640Y005980D03*
X013640Y006020D03*
X013640Y006060D03*
X013640Y006100D03*
X013640Y006140D03*
X013640Y006180D03*
X013640Y006220D03*
X013640Y006260D03*
X013640Y006300D03*
X013640Y006340D03*
X013640Y006380D03*
X013640Y006420D03*
X013180Y006440D03*
X013160Y006420D03*
X013180Y006400D03*
X013160Y006380D03*
X013180Y006360D03*
X013160Y006340D03*
X013180Y006320D03*
X013160Y006300D03*
X013180Y006280D03*
X013160Y006260D03*
X013180Y006240D03*
X013160Y006220D03*
X013180Y006200D03*
X013160Y006180D03*
X013180Y006160D03*
X013160Y006140D03*
X013180Y006120D03*
X013160Y006100D03*
X013180Y006080D03*
X013160Y006060D03*
X013180Y006040D03*
X013160Y006020D03*
X013180Y006000D03*
X013160Y005980D03*
X013180Y005960D03*
X013160Y005940D03*
X013180Y005920D03*
X013160Y005900D03*
X013180Y005880D03*
X013160Y005860D03*
X013180Y005840D03*
X013160Y005820D03*
X013180Y005800D03*
X013160Y005780D03*
X013180Y005760D03*
X013160Y005740D03*
X013180Y005720D03*
X013160Y005700D03*
X013160Y006660D03*
X013180Y006680D03*
X013160Y006700D03*
X013180Y006720D03*
X013160Y006740D03*
X013180Y006760D03*
X013160Y006780D03*
X013180Y006800D03*
X013160Y006820D03*
X013180Y006840D03*
X013160Y006860D03*
X013180Y006880D03*
X013160Y006900D03*
X013180Y006920D03*
X013160Y006940D03*
X013180Y006960D03*
X016680Y006420D03*
X016680Y006400D03*
X016680Y006380D03*
X016680Y006340D03*
X016680Y006300D03*
X016680Y006260D03*
X016680Y006220D03*
X016680Y006180D03*
X016680Y006140D03*
X016680Y006100D03*
X016680Y006060D03*
X016680Y006020D03*
X016700Y006000D03*
X016700Y005980D03*
X017040Y005980D03*
X017060Y006000D03*
X017060Y006040D03*
X017060Y006080D03*
X017060Y006120D03*
X017060Y006160D03*
X017060Y006200D03*
X017060Y006240D03*
X017060Y006280D03*
X017060Y006320D03*
X017060Y006360D03*
X017060Y006400D03*
X017040Y006460D03*
X016700Y006440D03*
D45*
X022010Y007240D03*
X022050Y007260D03*
X022090Y007140D03*
X022490Y007240D03*
X022250Y005520D03*
X022250Y005480D03*
X022250Y005440D03*
X022250Y005400D03*
X022250Y005360D03*
X022250Y005320D03*
D46*
X021500Y005320D03*
X021480Y005380D03*
X021240Y005820D03*
X021240Y005860D03*
X021240Y005900D03*
X021220Y005920D03*
X021220Y005960D03*
X021220Y006000D03*
X021220Y006040D03*
X023020Y005360D03*
X023260Y005840D03*
X023260Y005880D03*
X023260Y005920D03*
X023280Y005940D03*
X023280Y005980D03*
X023280Y006020D03*
X023280Y006060D03*
X023280Y006100D03*
X023280Y006340D03*
X023280Y006380D03*
X022940Y007160D03*
X022920Y007180D03*
X022700Y007400D03*
X021820Y007400D03*
X021560Y007180D03*
D47*
X019990Y006960D03*
X019990Y006920D03*
X019990Y006880D03*
X019990Y006840D03*
X019990Y006800D03*
X019990Y006760D03*
X019990Y006720D03*
X019990Y006680D03*
X019990Y006440D03*
X019990Y006400D03*
X019990Y006360D03*
X019990Y006320D03*
X019990Y006280D03*
X019990Y006240D03*
X019990Y006200D03*
X019990Y006160D03*
X019990Y006120D03*
X019990Y006080D03*
X019990Y006040D03*
X019990Y006000D03*
X019990Y005960D03*
X019990Y005920D03*
X019990Y005880D03*
X019990Y005840D03*
X019990Y005800D03*
X019990Y005760D03*
X019990Y005720D03*
X019990Y005680D03*
X018650Y005740D03*
X018650Y005780D03*
X018650Y005820D03*
X018650Y005860D03*
X018650Y005900D03*
X018650Y005940D03*
X018650Y005980D03*
X018650Y006020D03*
X018650Y006060D03*
X018650Y006100D03*
X018650Y006140D03*
X018650Y006180D03*
X018650Y006220D03*
X018650Y006260D03*
X018650Y006300D03*
X018650Y006340D03*
X018650Y006380D03*
X018650Y006420D03*
X019070Y006420D03*
X019450Y006380D03*
X018270Y006440D03*
X018250Y006420D03*
X017450Y005740D03*
X017790Y005500D03*
X018250Y005700D03*
X018270Y005680D03*
X018270Y005660D03*
X017110Y005340D03*
X016570Y005420D03*
X016550Y005400D03*
X016250Y005520D03*
X016250Y005560D03*
X016250Y005600D03*
X016250Y005640D03*
X016250Y005680D03*
X016250Y005720D03*
X016250Y005760D03*
X016250Y005800D03*
X016250Y005840D03*
X016250Y005880D03*
X016250Y005920D03*
X016250Y005960D03*
X016250Y006000D03*
X016250Y006040D03*
X016250Y006080D03*
X016250Y006120D03*
X016250Y006160D03*
X016250Y006200D03*
X016250Y006240D03*
X016250Y006280D03*
X016250Y006320D03*
X016250Y006360D03*
X016250Y006560D03*
X016250Y006600D03*
X016250Y006640D03*
X016250Y006680D03*
X016250Y006720D03*
X016250Y006760D03*
X016250Y006800D03*
X016250Y006840D03*
X016250Y006880D03*
X016250Y006920D03*
X016250Y006960D03*
X016250Y007000D03*
X016250Y007040D03*
X015370Y006960D03*
X015370Y006920D03*
X015370Y006880D03*
X015370Y006840D03*
X015370Y006800D03*
X015370Y006760D03*
X015370Y006720D03*
X015370Y006680D03*
X015370Y006440D03*
X015370Y006400D03*
X015370Y006360D03*
X015370Y006320D03*
X015370Y006280D03*
X015370Y006240D03*
X015370Y006200D03*
X015370Y006160D03*
X015370Y006120D03*
X015370Y006080D03*
X015370Y006040D03*
X015370Y006000D03*
X015370Y005960D03*
X015370Y005920D03*
X015370Y005880D03*
X015370Y005840D03*
X015370Y005800D03*
X015370Y005760D03*
X015370Y005720D03*
X015850Y005720D03*
X015850Y005760D03*
X015850Y005800D03*
X015850Y005840D03*
X015850Y005880D03*
X015850Y005920D03*
X015850Y005960D03*
X015850Y006000D03*
X015850Y006040D03*
X015850Y006080D03*
X015850Y006120D03*
X015850Y006160D03*
X015850Y006200D03*
X015850Y006240D03*
X015850Y006280D03*
X015850Y006320D03*
X015850Y006360D03*
X015850Y006400D03*
X015850Y006420D03*
X014830Y006400D03*
X014830Y006360D03*
X014830Y006320D03*
X014830Y006280D03*
X014830Y006240D03*
X014830Y006200D03*
X014830Y006160D03*
X014830Y006120D03*
X014830Y006080D03*
X014830Y006040D03*
X014830Y006000D03*
X014830Y005960D03*
X014830Y005920D03*
X014830Y005880D03*
X014830Y005840D03*
X014830Y005800D03*
X014830Y005760D03*
X014830Y005720D03*
X014450Y005660D03*
X014430Y005720D03*
X014430Y005760D03*
X014430Y005800D03*
X014430Y005840D03*
X014430Y005880D03*
X014430Y005920D03*
X014430Y005960D03*
X014430Y006000D03*
X014430Y006040D03*
X014430Y006080D03*
X014430Y006120D03*
X014430Y006160D03*
X014430Y006200D03*
X014430Y006240D03*
X014430Y006280D03*
X014430Y006320D03*
X014430Y006360D03*
X014050Y006360D03*
X014050Y006320D03*
X014050Y006280D03*
X014050Y006240D03*
X014050Y006200D03*
X014050Y006160D03*
X014050Y006120D03*
X014050Y006080D03*
X014050Y006040D03*
X014050Y006000D03*
X014050Y005960D03*
X014050Y005920D03*
X014050Y005880D03*
X014050Y005840D03*
X014050Y005800D03*
X014050Y005760D03*
X014030Y005680D03*
X013650Y005680D03*
X013630Y005760D03*
X013630Y005800D03*
X013630Y005840D03*
X013630Y005880D03*
X013630Y005920D03*
X013630Y005960D03*
X013630Y006000D03*
X013630Y006040D03*
X013630Y006080D03*
X013630Y006120D03*
X013630Y006160D03*
X013630Y006200D03*
X013630Y006240D03*
X013630Y006280D03*
X013630Y006320D03*
X013630Y006360D03*
X013650Y006440D03*
X014030Y006440D03*
X014830Y006600D03*
X014830Y006640D03*
X014830Y006680D03*
X014830Y006720D03*
X014830Y006760D03*
X014830Y006800D03*
X014830Y006840D03*
X014830Y006880D03*
X014830Y006920D03*
X014830Y006960D03*
X014830Y007000D03*
X014830Y007040D03*
X017050Y006440D03*
X015850Y005680D03*
X015850Y005640D03*
X015850Y005600D03*
X015850Y005560D03*
X015850Y005520D03*
X014830Y005520D03*
X013150Y005660D03*
D48*
X015890Y006640D03*
X016670Y006360D03*
X016670Y006320D03*
X016670Y006280D03*
X016670Y006240D03*
X016670Y006200D03*
X016670Y006160D03*
X016670Y006120D03*
X016670Y006080D03*
X016690Y006040D03*
X017070Y006060D03*
X017070Y006100D03*
X017070Y006140D03*
X017070Y006180D03*
X017070Y006220D03*
X017070Y006260D03*
X017070Y006300D03*
X017070Y006340D03*
X017070Y006380D03*
X016550Y005380D03*
X016550Y005340D03*
D49*
X021230Y005940D03*
X021230Y005980D03*
X021210Y006080D03*
X021210Y006120D03*
X021210Y006160D03*
X021210Y006280D03*
X021210Y006320D03*
X021210Y006360D03*
X021550Y007160D03*
X022910Y007200D03*
X022950Y007140D03*
X023290Y006300D03*
X023290Y006260D03*
X023290Y006220D03*
X023290Y006180D03*
X023290Y006140D03*
X023270Y005960D03*
X023030Y005420D03*
X023030Y005380D03*
D50*
X022780Y005660D03*
X021720Y005680D03*
X021720Y005640D03*
X022260Y007060D03*
X022240Y007200D03*
X019120Y006640D03*
X017060Y006420D03*
X017060Y006020D03*
X017040Y005720D03*
X017060Y005700D03*
X017060Y005420D03*
X017800Y005480D03*
X018460Y005460D03*
X015220Y005460D03*
X014520Y005480D03*
X013020Y005460D03*
X014520Y006640D03*
D51*
X022950Y007120D03*
X023050Y005460D03*
X023050Y005440D03*
D52*
X023060Y005480D03*
X021460Y005440D03*
X021440Y005460D03*
X021440Y005500D03*
X021240Y006420D03*
X021540Y007120D03*
X022960Y007100D03*
D53*
X022260Y007020D03*
X020040Y006640D03*
X019400Y006440D03*
X018460Y006620D03*
X018440Y006640D03*
X016880Y005800D03*
X016860Y005820D03*
X016600Y005440D03*
X017780Y005540D03*
X018440Y005480D03*
X019880Y005520D03*
X019900Y005540D03*
X019900Y005580D03*
X016200Y006440D03*
X015920Y006560D03*
X015400Y006640D03*
X013840Y006640D03*
X013200Y006640D03*
X013080Y005560D03*
X013060Y005540D03*
X013080Y005520D03*
X013840Y005480D03*
X014520Y005520D03*
X014540Y005540D03*
X015260Y005540D03*
X015260Y005520D03*
D54*
X021450Y005480D03*
X023070Y005500D03*
X023070Y005520D03*
X023070Y005540D03*
D55*
X022260Y007040D03*
X022240Y007180D03*
X019880Y005500D03*
X019860Y005480D03*
X019120Y006580D03*
X017500Y005680D03*
X017780Y005520D03*
X015920Y006580D03*
X014540Y006600D03*
X015240Y005500D03*
X013040Y005500D03*
D56*
X013850Y006480D03*
X014650Y006540D03*
X014650Y006560D03*
X014650Y005560D03*
X016750Y005480D03*
X016770Y005500D03*
X018450Y005640D03*
X022930Y007260D03*
D57*
X019430Y006420D03*
X019130Y006600D03*
X018290Y006460D03*
X017470Y005700D03*
X016230Y006400D03*
X015910Y006600D03*
X015870Y006440D03*
X015230Y005480D03*
D58*
X021420Y005540D03*
X021440Y005520D03*
X023060Y006900D03*
X022260Y007580D03*
D59*
X022260Y007640D03*
X022260Y007280D03*
X018460Y006600D03*
X016860Y005880D03*
X016940Y005640D03*
X018460Y005520D03*
X013840Y005540D03*
X013840Y006580D03*
D60*
X013840Y006600D03*
X013840Y005520D03*
X016860Y005860D03*
X016880Y006600D03*
D61*
X018450Y006580D03*
X019970Y006620D03*
X018450Y005540D03*
D62*
X017040Y005740D03*
X017020Y005760D03*
X017000Y005780D03*
X016880Y006660D03*
X018440Y006660D03*
X021720Y005700D03*
X021720Y005660D03*
X021720Y005620D03*
X021720Y005560D03*
X022780Y005560D03*
X022780Y005600D03*
X022780Y005620D03*
X022780Y005640D03*
X022780Y005680D03*
X022400Y007140D03*
X022440Y007260D03*
X022060Y007120D03*
X013840Y006660D03*
D63*
X021860Y006120D03*
X021860Y006080D03*
X021860Y006040D03*
X021860Y006000D03*
X021860Y005960D03*
X021860Y005920D03*
X021860Y005880D03*
X021860Y005840D03*
X021860Y005800D03*
X021860Y005760D03*
X021860Y005720D03*
X021860Y005600D03*
X021860Y005560D03*
X022660Y005560D03*
X022660Y005760D03*
X022660Y005800D03*
X022660Y005840D03*
X022660Y005880D03*
X022660Y005920D03*
X022660Y005960D03*
X022660Y006000D03*
X022660Y006040D03*
X022660Y006080D03*
X022660Y006120D03*
X022780Y005720D03*
X022460Y006760D03*
X022440Y006780D03*
X022420Y006800D03*
X022100Y006800D03*
X022080Y006780D03*
X022480Y007100D03*
D64*
X023250Y005700D03*
X023250Y005680D03*
X021290Y005560D03*
X021250Y005640D03*
X021250Y005680D03*
X021250Y005700D03*
D65*
X019970Y006520D03*
X019970Y006560D03*
X018450Y006540D03*
X016910Y005620D03*
X018450Y005560D03*
X015350Y006480D03*
X015350Y006520D03*
X015350Y006560D03*
X013150Y006500D03*
D66*
X013090Y005600D03*
X015270Y005580D03*
X015270Y005560D03*
X015930Y006540D03*
X016870Y006620D03*
X017770Y005560D03*
X019150Y006540D03*
X019910Y005620D03*
D67*
X021730Y005580D03*
X022530Y007220D03*
D68*
X018450Y006520D03*
X018450Y005600D03*
X016870Y005960D03*
X016870Y006480D03*
D69*
X018460Y006500D03*
X018460Y005620D03*
X013840Y005620D03*
X013840Y005640D03*
X013840Y005600D03*
X013840Y006500D03*
X013840Y006520D03*
D70*
X022250Y006440D03*
D71*
X021390Y006460D03*
D72*
X021390Y006560D03*
X021390Y006600D03*
X023130Y006480D03*
D73*
X023140Y006500D03*
X023120Y006520D03*
X023120Y006560D03*
X023120Y006600D03*
X022240Y007560D03*
X021400Y006680D03*
X021400Y006640D03*
X021380Y006580D03*
X021380Y006540D03*
X021380Y006500D03*
D74*
X021390Y006620D03*
X021410Y006720D03*
X023110Y006640D03*
X023130Y006540D03*
D75*
X023120Y006580D03*
X023120Y006620D03*
X023120Y006660D03*
X023100Y006680D03*
X023100Y006720D03*
X021420Y006760D03*
X021400Y006740D03*
X021400Y006700D03*
X021400Y006660D03*
X021420Y006800D03*
D76*
X016870Y006580D03*
D77*
X021420Y006780D03*
X021420Y006820D03*
X021440Y006840D03*
X021440Y006880D03*
X021540Y007020D03*
X022960Y007040D03*
X023080Y006800D03*
X023100Y006780D03*
X023100Y006740D03*
X023100Y006700D03*
D78*
X023090Y006760D03*
D79*
X023070Y006840D03*
X022950Y007020D03*
X021590Y007100D03*
X021570Y007080D03*
X021550Y007040D03*
D80*
X023050Y006920D03*
D81*
X022240Y006960D03*
D82*
X022240Y006980D03*
D83*
X022240Y007000D03*
D84*
X022240Y007420D03*
D85*
X022260Y007540D03*
M02*
